<svg width="1168" height="1072" viewBox="0 0 1168 1072" fill="none" xmlns="http://www.w3.org/2000/svg">
<path d="M624.944 279.566C622.304 278.305 619.309 277.641 616.26 277.641V800.008C619.309 800.008 622.304 799.344 624.944 798.083L883.336 674.71C885.979 673.448 888.172 671.633 889.697 669.447C891.221 667.261 892.023 664.781 892.021 662.257V415.439C892.023 412.916 891.221 410.436 889.697 408.25C888.172 406.064 885.979 404.249 883.336 402.987L624.944 279.566Z" fill="#E8F1F5"/>
<path d="M563.076 193.925C565.717 192.664 568.712 192 571.761 192V714.366C568.712 714.366 565.717 713.702 563.076 712.441L304.684 589.068C302.042 587.806 299.848 585.991 298.324 583.805C296.799 581.619 295.998 579.14 296 576.616V329.798C295.998 327.274 296.799 324.795 298.324 322.609C299.848 320.423 302.042 318.608 304.684 317.346L563.076 193.925Z" fill="#E8F1F5"/>
</svg>
