<svg width="1168" height="1072" viewBox="0 0 1168 1072" fill="none" xmlns="http://www.w3.org/2000/svg">
<path d="M614.944 319.566C612.304 318.305 609.309 317.641 606.26 317.641V840.008C609.309 840.008 612.304 839.344 614.944 838.083L873.336 714.71C875.979 713.448 878.172 711.633 879.697 709.447C881.221 707.261 882.023 704.781 882.021 702.257V455.439C882.023 452.916 881.221 450.436 879.697 448.25C878.172 446.064 875.979 444.249 873.336 442.987L614.944 319.566Z" fill="#333333"/>
<path d="M553.076 233.925C555.717 232.664 558.712 232 561.761 232V754.366C558.712 754.366 555.717 753.702 553.076 752.441L294.684 629.068C292.042 627.806 289.848 625.991 288.324 623.805C286.799 621.619 285.998 619.14 286 616.616V369.798C285.998 367.274 286.799 364.795 288.324 362.609C289.848 360.423 292.042 358.608 294.684 357.346L553.076 233.925Z" fill="#333333"/>
</svg>
